<svg width="410" height="404" viewBox="0 0 410 404" fill="none" xmlns="http://www.w3.org/2000/svg">
  <g clip-path="url(#clip0_87_13)">
    <path d="M399.5 80.5L205 399.5C202.5 403.5 197.5 403.5 195 399.5L0.5 80.5C-2.5 75.5 1.5 69 7.5 69H392.5C398.5 69 402.5 75.5 399.5 80.5Z" fill="#646CFF"/>
    <path d="M205 399.5L399.5 80.5C402.5 75.5 398.5 69 392.5 69H205V399.5Z" fill="#747BFF"/>
    <path d="M205 0C210.5 0 215 4.5 215 10V69H195V10C195 4.5 199.5 0 205 0Z" fill="#F7DF1E"/>
    <path d="M205 0C210.5 0 215 4.5 215 10V69H205V0Z" fill="#FFE66D"/>
  </g>
  <defs>
    <clipPath id="clip0_87_13">
      <rect width="410" height="404" fill="white"/>
    </clipPath>
  </defs>
</svg>